PathFileType	4	(X/Y/Z)	Patient4_TMGait_0pt3_01_left_02.trc.trc
DataRate	CameraRate	NumFrames	NumMarkers	Units	OrigDataRate	OrigDataStartFrame	OrigNumFrames
52.238805970149	52.238805970149	5	33	mm	52.238805970149	1	       141
Frame#	Time	Sacral			L.Shoulder			Chest			R.Shoulder			Neck			R.ASIS			L.ASIS			R.Thigh.Superior			R.Thigh.Lateral			R.Thigh.Inferior			R.Patella			L.Thigh.Superior			L.Thigh.Lateral			L.Thigh.Inferior			L.Patella			L.Shank.Superior			L.Shank.Lateral			L.Shank.Inferior			R.Shank.Superior			R.Shank.Lateral			R.Shank.Inferior			R.Heel			R.Midfoot.Superior			R.Midfoot.Lateral			R.Toe			L.Heel			L.Midfoot.Lateral			L.Midfoot.Superior			L.Toe			L.Elbow			L.Wrist			R.Elbow			R.Wrist			
		X1	Y1	Z1	X2	Y2	Z2	X3	Y3	Z3	X4	Y4	Z4	X5	Y5	Z5	X6	Y6	Z6	X7	Y7	Z7	X8	Y8	Z8	X9	Y9	Z9	X10	Y10	Z10	X11	Y11	Z11	X12	Y12	Z12	X13	Y13	Z13	X14	Y14	Z14	X15	Y15	Z15	X16	Y16	Z16	X17	Y17	Z17	X18	Y18	Z18	X19	Y19	Z19	X20	Y20	Z20	X21	Y21	Z21	X22	Y22	Z22	X23	Y23	Z23	X24	Y24	Z24	X25	Y25	Z25	X26	Y26	Z26	X27	Y27	Z27	X28	Y28	Z28	X29	Y29	Z29	X30	Y30	Z30	X31	Y31	Z31	X32	Y32	Z32	X33	Y33	Z33	

1	2.970000000000	825.052030790322	994.565985795915	557.674151423147	979.761295242183	1431.591458196283	374.843558635155	1081.722128388308	1370.788636014726	539.522332034326	988.967100962172	1439.235340123103	710.912662062835	955.534035247825	1493.539297573598	535.314885372896	1058.492347808673	945.155811478848	678.983307137189	1044.152878829177	960.816212911674	404.394633001850	1099.591715063649	741.549870758761	643.017498244168	1015.488000282749	627.972084263099	695.430496632697	1093.031824993232	579.048890843727	615.663528957648	1090.511373483791	488.502719259082	617.432392657459	1108.532269268110	752.003737853195	429.934216163801	1039.874847928662	630.887775099491	355.977875325606	1130.647570804887	553.143451490195	418.575188981845	1126.984261100059	464.648916191985	410.050075539900	1054.513751388043	407.727842280009	399.005519313479	909.685013729364	377.800221272336	351.156914877236	889.965154051109	246.047718748307	398.208432447903	1057.667277663041	400.259552347742	619.498308315867	980.308501456021	297.618678244082	674.363393852261	1017.614150724638	203.437472898155	608.401851151928	877.197064691357	43.477478846231	568.372920966086	1046.123552816981	96.021112758064	611.732389816023	956.964271221168	36.970257202575	646.732997476296	1165.254101605796	44.524939006449	646.984515298117	696.468725330911	191.661684632328	437.601563496915	749.308111035723	149.170566837425	352.244205982109	855.626049460137	147.561903231452	371.576174742405	924.425859568713	33.472256099261	331.476849783743	985.565325555246	1072.901608230995	272.841571572624	1107.670958000731	841.543950516973	265.169148577721	983.786556578911	1096.008124605985	847.104344534977	1110.363789300647	872.278224527600	899.587260108057	
2	2.989142857143	823.686352643594	993.591829314711	561.310476627243	976.227013927191	1430.240278158510	375.787538960538	1080.343023927765	1369.821531360941	539.236618963761	990.106009406194	1438.832597887083	711.701162703373	954.449535004111	1492.771876084420	536.203908636651	1058.000375139037	944.227871319221	679.885263287609	1040.871929920052	960.460239334054	405.591886347965	1098.852877248458	740.696179286582	643.251906245145	1015.304275958283	626.916588477704	696.082633909437	1092.152137162486	578.133316020715	615.542356427183	1089.520640245353	487.132384377873	617.222220483336	1108.698673550862	754.099002409258	431.508758099084	1042.378298314050	631.945980804033	357.669943396582	1134.583189962433	555.937478831676	420.434174152828	1132.731995055545	467.363253417501	411.678440849506	1061.206120763691	409.402775371289	400.238479812625	916.534314010403	377.058398850031	353.342082707835	900.053356788595	244.509087419950	399.309947183543	1055.560683952374	399.047676943545	619.347581142940	977.338679036047	297.124078477253	674.350901543015	1013.302451755100	202.749464431635	608.114201246907	871.287573917481	43.477474230899	568.371222352988	1040.522096745460	96.327742960244	612.087683335777	951.036718280528	36.962521356782	646.731934902696	1159.408768604102	44.352258256985	647.083107805283	708.251601657604	184.422744376114	439.970892710740	761.242584851436	145.061284784848	353.436398632547	867.615458424363	146.470518600901	371.799197247016	939.295607170903	35.394570319537	328.960892432377	974.090397463327	1071.492315734834	274.923799281413	1081.080539816970	834.923782599529	266.216447196241	993.403385623712	1095.891579981477	848.455914543700	1129.474889969626	878.391348449018	900.056166772040	
3	3.008285714286	822.230653762025	992.669187467022	564.964986766218	972.612183802728	1428.884414937759	376.715710415904	1078.948065298384	1368.838411088170	538.867904531610	991.323648997768	1438.443596847147	712.431873402942	953.391680650992	1492.004636444480	537.089201266731	1057.469457093534	943.299459529247	680.724724400469	1037.449577962001	960.113367455064	406.735763456541	1097.987372577996	739.822453600508	643.443009034258	1014.966430508905	625.869124720254	696.709293156016	1091.095066112651	577.202844419987	615.399007940756	1088.326225224308	485.762453140152	616.997315423019	1108.685176579924	756.225038360333	433.066948326174	1044.742051040910	633.057660020347	359.330257644296	1138.339459886510	558.812981911840	422.287881896210	1138.381055177225	470.220267901373	413.272049358879	1068.003213922352	411.117600769296	401.420666399648	923.662688859219	375.857644870923	355.450034313189	910.877266660962	242.529562603936	400.350677843818	1053.261391204408	397.844935777648	619.196374336109	974.197673054885	296.629201422335	674.347203043925	1008.829236041484	202.063225813226	607.835201996344	865.237395343745	43.482462499200	568.368308053753	1034.755866675770	96.603887754202	612.414171740019	944.969011946379	36.953442850884	646.734027945592	1153.417885473433	44.176713331797	647.177054991200	721.123788633204	176.127369705534	442.244287214989	774.320947841730	140.072788596029	354.547765692094	880.650748592850	144.876767962953	371.974213078893	955.516296033704	37.157642463384	326.426947366890	962.018775397304	1070.209947246085	276.970146239800	1054.093443552283	828.650408351701	267.346946349748	1003.297654541439	1095.846449943579	849.687787342481	1149.222964449940	885.007142712261	900.195040651428	
4	3.027428571429	820.681882417089	991.869244819252	568.531190714988	968.986312466828	1427.582662426995	377.583922753834	1077.571426136334	1367.872309188626	538.375485311258	992.631126787849	1438.096754378368	713.042427126078	952.404769121967	1491.275565608941	537.928195379043	1056.887787387726	942.404221580850	681.435663233291	1033.912551164148	959.802089956593	407.757883921063	1096.942133311961	738.948081793660	643.559175256572	1014.384689711352	624.875133546403	697.277550934666	1089.775278361918	576.281850668787	615.224142995597	1086.830756055682	484.443844738088	616.756747468645	1108.381861315748	758.339602029771	434.543081630842	1046.795056286797	634.227117314602	360.873990054739	1141.680925287020	561.726579580135	424.051854560839	1143.680924466466	473.222878593194	414.742781461374	1074.731208565429	412.866598543427	402.472789315568	931.016015092036	374.039216650701	357.350985095506	922.497505684160	240.015427888490	401.251507199666	1050.715210062248	396.699727504883	619.047394218975	970.872412434345	296.154526440173	674.354887929606	1004.233577781943	201.405490834227	607.577541827874	859.148968319858	43.492963229531	568.367520772931	1028.908801220285	96.822359051237	612.684702851965	938.867295790906	36.943246594188	646.741906991121	1147.382166286744	44.002148681737	647.261841816888	735.289321318926	166.606893313724	444.280939781886	788.773475409083	134.006567763590	355.492067500308	894.898199034821	142.646722791774	372.063137984369	973.288212133275	38.686526625636	323.962072555451	949.443167722328	1069.185263672682	278.916951604495	1027.353508550565	823.107705582467	268.577934855295	1013.314407996311	1095.929249320508	850.687414857213	1169.312022375822	892.238189123248	899.796260456654	
5	3.046571428571	819.035684854531	991.261630250157	571.924185946331	965.397093707613	1426.394319261981	378.355907858171	1076.237737754159	1366.957428932596	537.719034550266	994.044071382014	1437.820793922671	713.477831032340	951.522593557136	1490.624421249133	538.683754624477	1056.240965793857	941.573442526307	681.959529007518	1030.277053874035	959.556802393421	408.598455113498	1095.661647638168	738.090103510657	643.571664103551	1013.470488520538	623.976121372725	697.763653217592	1088.102384515123	575.391694151359	615.009783714295	1084.931811344506	483.222217219350	616.501963236320	1107.688810791037	760.417267247121	435.881343560614	1048.389600687438	635.465943937821	362.222162295930	1144.408996445327	564.650875310573	425.645301152969	1148.423296345346	476.387713251266	416.008695892992	1081.246959551655	414.666585193131	403.323373545371	938.575343351978	371.510903935370	358.925946443390	934.978778472887	236.951680898839	401.942214937234	1047.856527778623	395.654364362641	618.903787859889	967.332274135083	295.719694767685	674.376895038361	999.528697737362	200.801110540031	607.353082703751	853.091307779872	43.509925875562	568.373450616269	1023.038021498006	96.967753158954	612.885496407184	932.801825093877	36.931814584405	646.757568242196	1141.368626348861	43.831339779272	647.335366452252	750.946384134436	155.827349925164	445.954419729374	804.822094966452	126.784936883732	356.195275527179	910.515558369749	139.735808084623	372.034700147451	992.775144399387	39.971666253471	321.661155594082	936.444666730336	1068.542026958931	280.731625794157	1001.359685705180	818.595808317393	269.931477787418	1023.349758781289	1096.198678972829	851.359642053999	1189.517446972263	900.223574672966	898.671944956160	
